<?xml version="1.0" encoding="UTF-8" standalone="no"?>
<!-- Created with Inkscape (http://www.inkscape.org/) -->

<svg
   width="13.496641mm"
   height="9.2368927mm"
   viewBox="0 0 13.496641 9.2368927"
   version="1.1"
   id="svg278"
   xmlns="http://www.w3.org/2000/svg"
   xmlns:svg="http://www.w3.org/2000/svg">
  <defs
     id="defs275" />
  <g
     id="layer1"
     transform="translate(-32.292577,-128.40979)">
    <path
       style="fill:#000000;stroke-width:0.264583"
       d="m 36.43726,137.35576 c -0.056,-0.1819 -0.171,-0.64768 -0.25547,-1.03506 -0.15359,-0.70432 -0.15359,-0.70432 -1.78014,-0.32488 -2.03141,0.4739 -2.16,0.34687 -0.92707,-0.91577 0.98548,-1.00922 0.98548,-1.00922 -0.0833,-1.42907 -0.98491,-0.38688 -1.45985,-0.99158 -0.77881,-0.99158 1.73198,0 3.14958,-0.85728 3.14958,-1.90467 0,-1.14338 0.28418,-1.20981 2.52944,-0.59129 0.38619,0.10638 0.92602,-0.16514 1.85208,-0.93156 1.30702,-1.08171 1.30702,-1.08171 1.54052,-0.0839 0.30364,1.29763 0.19324,1.25063 1.73492,0.73856 1.79034,-0.59465 2.03583,-0.4466 1.09157,0.65834 -1.0394,1.21625 -1.01017,1.4349 0.2473,1.8499 1.65594,0.54651 1.46457,0.71654 -1.65364,1.46924 -0.65664,0.1585 -0.72761,0.28897 -0.72761,1.33757 0,1.31835 -0.13158,1.3721 -1.86326,0.76113 -1.13604,-0.40082 -1.13604,-0.40082 -2.39583,0.66145 -1.37353,1.15818 -1.52807,1.22546 -1.68024,0.73155 z m 3.36369,-2.44295 c 0.3252,0.0934 0.79167,0.22541 1.03661,0.29335 0.34208,0.0949 0.46479,-0.0787 0.52917,-0.7486 0.0734,-0.76343 0.20747,-0.90266 1.07601,-1.11722 0.98554,-0.24346 1.36268,-0.68094 0.58701,-0.68094 -0.64099,0 -0.76415,-0.7606 -0.22222,-1.37239 0.51887,-0.58575 0.0949,-0.60334 -1.33328,-0.0553 -0.31448,0.12068 -0.46418,-0.0471 -0.58614,-0.65691 -0.16379,-0.81897 -0.16379,-0.81897 -1.12359,-0.0734 -0.73772,0.57307 -1.11285,0.70082 -1.62126,0.55213 -1.15914,-0.33903 -1.32292,-0.27513 -1.32292,0.51613 0,0.68703 -0.12415,0.79474 -1.25677,1.09035 -1.23452,0.32221 -1.24389,0.33253 -0.52916,0.58263 0.40018,0.14003 0.7276,0.38904 0.7276,0.55335 0,0.16431 -0.32742,0.58065 -0.7276,0.92521 -0.41329,0.35584 -0.5357,0.56686 -0.28338,0.48847 1.74608,-0.5424 2.2613,-0.49431 2.44258,0.228 0.17759,0.70757 0.17759,0.70757 1.09683,0.006 0.64552,-0.49236 1.09529,-0.65056 1.51051,-0.5313 z"
       id="path264" />
  </g>
</svg>
