<?xml version="1.0" encoding="UTF-8" standalone="no"?>
<!-- Generator: Adobe Illustrator 18.0.0, SVG Export Plug-In . SVG Version: 6.00 Build 0)  -->

<svg
   version="1.1"
   id="Capa_1"
   x="0px"
   y="0px"
   viewBox="0 0 198.91113 198.00002"
   xml:space="preserve"
   sodipodi:docname="shiny.svg"
   width="198.91113"
   height="198.00002"
   inkscape:version="1.2.2 (732a01da63, 2022-12-09)"
   xmlns:inkscape="http://www.inkscape.org/namespaces/inkscape"
   xmlns:sodipodi="http://sodipodi.sourceforge.net/DTD/sodipodi-0.dtd"
   xmlns="http://www.w3.org/2000/svg"
   xmlns:svg="http://www.w3.org/2000/svg"><defs
   id="defs286" /><sodipodi:namedview
   id="namedview284"
   pagecolor="#ffffff"
   bordercolor="#666666"
   borderopacity="1.0"
   inkscape:showpageshadow="2"
   inkscape:pageopacity="0.0"
   inkscape:pagecheckerboard="0"
   inkscape:deskcolor="#d1d1d1"
   showgrid="false"
   inkscape:zoom="4.3409579"
   inkscape:cx="89.15083"
   inkscape:cy="124.39651"
   inkscape:window-width="3840"
   inkscape:window-height="2054"
   inkscape:window-x="3829"
   inkscape:window-y="-11"
   inkscape:window-maximized="1"
   inkscape:current-layer="g251" />
<g
   id="g251"
   transform="translate(-22.089783,-5.1244818)">
	
	
	
	
	
	
<path
   style="fill:#000000"
   d="m 83.492811,166.52392 c -8.78446,-26.47401 -11.8399,-31.37603 -22.43479,-35.99339 -2.47913,-1.08043 -12.15751,-4.46161 -21.50751,-7.51373 l -17,-5.54932 18.5,-6.19233 c 21.65205,-7.24739 25.54929,-9.08494 29.98656,-14.138718 4.30331,-4.90119 6.74415,-10.58269 13.08498,-30.457629 l 5.23375,-16.404889 6.1929,18.5 c 7.042319,21.037478 8.972939,25.225658 13.664169,29.642198 4.79202,4.511428 9.15084,6.436878 29.08763,12.849058 9.7625,3.13987 17.75,5.85627 17.75,6.03645 0,0.18018 -7.7625,2.87703 -17.25,5.99299 -32.9194,10.81168 -33.12877,11.02389 -43.731339,44.32442 -2.82896,8.88519 -5.30308,16.15489 -5.49805,16.15489 -0.19497,0 -2.9302,-7.7625 -6.0783,-17.25 z M 172.23604,93.023912 c -2.37014,-7.0125 -5.23223,-14.00563 -6.3602,-15.540291 -2.67261,-3.63622 -8.91413,-6.697267 -21.70572,-10.645194 -5.70921,-1.76206 -9.98421,-3.563839 -9.5,-4.003954 0.48421,-0.440114 6.28038,-2.521923 12.88038,-4.626241 16.73776,-5.336602 18.71532,-7.36181 24.57611,-25.168357 2.3957,-7.278722 4.65258,-12.903722 5.01529,-12.5 0.36271,0.403721 2.32026,5.774111 4.35011,11.934199 5.97288,18.126215 7.78531,19.87702 27.31349,26.384819 l 12.65615,4.217684 -13.50415,4.598669 c -7.42728,2.529267 -14.74127,5.410618 -16.25331,6.403002 -4.02908,2.644366 -6.20462,6.818734 -10.395,19.945664 -2.06296,6.462498 -3.97875,11.749998 -4.25731,11.749998 -0.27857,0 -2.44569,-5.7375 -4.81584,-12.749998 z"
   id="path554"
   sodipodi:nodetypes="ssscssscssssssssssssssssscsssss" /></g>
<g
   id="g253"
   transform="translate(-22.089783,-5.1244818)">
</g>
<g
   id="g255"
   transform="translate(-22.089783,-5.1244818)">
</g>
<g
   id="g257"
   transform="translate(-22.089783,-5.1244818)">
</g>
<g
   id="g259"
   transform="translate(-22.089783,-5.1244818)">
</g>
<g
   id="g261"
   transform="translate(-22.089783,-5.1244818)">
</g>
<g
   id="g263"
   transform="translate(-22.089783,-5.1244818)">
</g>
<g
   id="g265"
   transform="translate(-22.089783,-5.1244818)">
</g>
<g
   id="g267"
   transform="translate(-22.089783,-5.1244818)">
</g>
<g
   id="g269"
   transform="translate(-22.089783,-5.1244818)">
</g>
<g
   id="g271"
   transform="translate(-22.089783,-5.1244818)">
</g>
<g
   id="g273"
   transform="translate(-22.089783,-5.1244818)">
</g>
<g
   id="g275"
   transform="translate(-22.089783,-5.1244818)">
</g>
<g
   id="g277"
   transform="translate(-22.089783,-5.1244818)">
</g>
<g
   id="g279"
   transform="translate(-22.089783,-5.1244818)">
</g>
<g
   id="g281"
   transform="translate(-22.089783,-5.1244818)">
</g>
</svg>
