<?xml version="1.0" encoding="UTF-8" standalone="no"?>
<!-- Created with Inkscape (http://www.inkscape.org/) -->

<svg
   width="13.665077mm"
   height="8.7970095mm"
   viewBox="0 0 13.665077 8.7970095"
   version="1.1"
   id="svg312"
   xmlns="http://www.w3.org/2000/svg"
   xmlns:svg="http://www.w3.org/2000/svg">
  <defs
     id="defs309" />
  <g
     id="layer1"
     transform="translate(-40.884108,-40.137038)">
    <path
       style="fill:#000000;stroke-width:0.264583"
       d="m 43.305374,48.559262 c -2.29093,-0.9468 -2.83908,-1.91283 -2.13359,-3.760128 1.93056,-5.055098 13.38249,-6.539998 13.3774,-1.734565 -0.004,3.421813 -7.45204,7.061753 -11.24381,5.494693 z m 5.02709,-0.81914 c 4.2318,-1.12765 6.61501,-4.587278 4.23448,-6.147061 -3.64341,-2.387255 -11.98365,1.516532 -10.39401,4.865091 0.71224,1.50033 3.31062,2.04113 6.15953,1.28197 z m -3.76109,-0.82553 c -1.61199,-0.700882 -1.39313,-2.695117 0.4348,-3.961873 2.68768,-1.862562 7.16275,-1.531874 7.16275,0.529296 0,2.376943 -4.91658,4.598257 -7.59755,3.432577 z m 4.31105,-0.904902 c 1.04072,-0.472674 2.22816,-1.658475 2.22816,-2.22509 0,-1.760054 -4.03748,-1.654032 -6.01927,0.158064 -1.93752,1.771616 0.96142,3.352208 3.79111,2.067026 z m -2.60048,-0.564501 c -0.65751,-0.401832 -0.57438,-0.924432 0.25024,-1.573073 0.96465,-0.758792 2.82046,-0.67008 2.9364,0.140368 0.15748,1.10076 -2.08217,2.107699 -3.18664,1.432705 z m 2.06477,-0.808899 c 0.0978,-0.1582 0.075,-0.383886 -0.0505,-0.501523 -0.3111,-0.291457 -1.4944,0.188413 -1.28802,0.522339 0.21942,0.355037 1.11486,0.341112 1.33855,-0.02081 z"
       id="path203" />
  </g>
</svg>
